<svg xmlns="http://www.w3.org/2000/svg" xmlns:xlink="http://www.w3.org/1999/xlink" width="269" height="250" viewBox="0 0 269 250">
    <defs>
        <path id="a" d="M0 0h269v251H0z"/>
        <path id="c" d="M0 0h107v38H0z"/>
        <path id="e" d="M0 0h70v25H0z"/>
        <path id="g" d="M0 0h70v25H0z"/>
    </defs>
    <g fill="none" fill-rule="evenodd">
        <mask id="b" fill="#fff">
            <use xlink:href="#a"/>
        </mask>
        <g mask="url(#b)" opacity=".7">
            <g transform="matrix(-1 0 0 1 94 3)">
                <mask id="d" fill="#fff">
                    <use xlink:href="#c"/>
                </mask>
                <path fill="#FFF" d="M59.097 9.12c12.563 0 23.245 5.312 27.174 12.72a24.44 24.44 0 0 1 1.61-.053c9.715 0 17.59 5.67 17.59 12.666S97.596 47.12 87.881 47.12c-4.706 0-8.98-1.33-12.136-3.498-4.7 2.203-10.445 3.498-16.648 3.498-4.697 0-9.13-.742-13.047-2.06-4.521 1.303-9.928 2.06-15.737 2.06-15.897 0-28.784-5.671-28.784-12.667 0-6.995 12.887-12.666 28.784-12.666.546 0 1.089.006 1.627.02C35.883 14.417 46.553 9.12 59.097 9.12z" mask="url(#d)"/>
            </g>
        </g>
        <g fill="#FFF" mask="url(#b)" opacity=".5">
            <path d="M115.959 156s.971-5.348-6.534-5.067c0 0-.883-5.7-9.095-4.574 0 0-1.236-9.148-13.42-8.304 0 0-8.3.422-9.273 9.641 0 0-13.067-3.096-12.626 8.304h50.948z"/>
        </g>
        <g mask="url(#b)">
            <path fill="#939DB7" d="M63.306 139L-22 250h166z"/>
            <path fill="#FFF" d="M63.306 139L-22 250h166z" opacity=".31"/>
            <path fill="#FFF" d="M63.781 139L34.57 176.457l34.776-4.522 34.777 21.749z"/>
        </g>
        <g fill="#178667" mask="url(#b)">
            <path d="M104.583 186L83 251h42z"/>
        </g>
        <g mask="url(#b)">
            <path fill="#8C4C9E" d="M53 191h33a2 2 0 0 1 2 2v58H51v-58a2 2 0 0 1 2-2z"/>
            <path fill="#CD94FF" d="M62.593 242.039c.41 0 .74.262.74.587v3.89c0 .325-.33.588-.74.588h-2.22c-.409 0-.74-.263-.74-.587v-3.89c0-.326.331-.588.74-.588h2.22zm8.017 0c.409 0 .74.262.74.587v3.89c0 .325-.331.588-.74.588h-2.22c-.409 0-.74-.263-.74-.587v-3.89c0-.326.331-.588.74-.588h2.22zm8.017 0c.409 0 .74.262.74.587v3.89c0 .325-.331.588-.74.588h-2.22c-.41 0-.74-.263-.74-.587v-3.89c0-.326.33-.588.74-.588h2.22zm-16.034-7.792c.41 0 .74.262.74.586v3.892c0 .323-.33.587-.74.587h-2.22c-.409 0-.74-.264-.74-.587v-3.892c0-.324.331-.586.74-.586h2.22zm8.017 0c.409 0 .74.262.74.586v3.892c0 .323-.331.587-.74.587h-2.22c-.409 0-.74-.264-.74-.587v-3.892c0-.324.331-.586.74-.586h2.22zm8.017 0c.409 0 .74.262.74.586v3.892c0 .323-.331.587-.74.587h-2.22c-.41 0-.74-.264-.74-.587v-3.892c0-.324.33-.586.74-.586h2.22zm-16.034-7.403c.41 0 .74.263.74.587v3.89c0 .325-.33.588-.74.588h-2.22c-.409 0-.74-.263-.74-.587v-3.89c0-.325.331-.588.74-.588h2.22zm8.017 0c.409 0 .74.263.74.587v3.89c0 .325-.331.588-.74.588h-2.22c-.409 0-.74-.263-.74-.587v-3.89c0-.325.331-.588.74-.588h2.22zm8.017 0c.409 0 .74.263.74.587v3.89c0 .325-.331.588-.74.588h-2.22c-.41 0-.74-.263-.74-.587v-3.89c0-.325.33-.588.74-.588h2.22zm-16.034-7.402c.41 0 .74.262.74.586v3.891c0 .324-.33.587-.74.587h-2.22c-.409 0-.74-.263-.74-.587v-3.89c0-.325.331-.587.74-.587h2.22zm8.017 0c.409 0 .74.262.74.586v3.891c0 .324-.331.587-.74.587h-2.22c-.409 0-.74-.263-.74-.587v-3.89c0-.325.331-.587.74-.587h2.22zm8.017 0c.409 0 .74.262.74.586v3.891c0 .324-.331.587-.74.587h-2.22c-.41 0-.74-.263-.74-.587v-3.89c0-.325.33-.587.74-.587h2.22zm-16.034-7.793c.41 0 .74.263.74.588v3.89c0 .324-.33.587-.74.587h-2.22c-.409 0-.74-.263-.74-.587v-3.89c0-.325.331-.588.74-.588h2.22zm8.017 0c.409 0 .74.263.74.588v3.89c0 .324-.331.587-.74.587h-2.22c-.409 0-.74-.263-.74-.587v-3.89c0-.325.331-.588.74-.588h2.22zm8.017 0c.409 0 .74.263.74.588v3.89c0 .324-.331.587-.74.587h-2.22c-.41 0-.74-.263-.74-.587v-3.89c0-.325.33-.588.74-.588h2.22zm-16.034-7.402c.41 0 .74.263.74.587v3.89c0 .324-.33.588-.74.588h-2.22c-.409 0-.74-.264-.74-.587v-3.891c0-.324.331-.587.74-.587h2.22zm8.017 0c.409 0 .74.263.74.587v3.89c0 .324-.331.588-.74.588h-2.22c-.409 0-.74-.264-.74-.587v-3.891c0-.324.331-.587.74-.587h2.22zm8.017 0c.409 0 .74.263.74.587v3.89c0 .324-.331.588-.74.588h-2.22c-.41 0-.74-.264-.74-.587v-3.891c0-.324.33-.587.74-.587h2.22zm-16.034-7.403c.41 0 .74.263.74.587v3.89c0 .325-.33.588-.74.588h-2.22c-.409 0-.74-.263-.74-.587v-3.89c0-.325.331-.588.74-.588h2.22zm8.017 0c.409 0 .74.263.74.587v3.89c0 .325-.331.588-.74.588h-2.22c-.409 0-.74-.263-.74-.587v-3.89c0-.325.331-.588.74-.588h2.22zm8.017 0c.409 0 .74.263.74.587v3.89c0 .325-.331.588-.74.588h-2.22c-.41 0-.74-.263-.74-.587v-3.89c0-.325.33-.588.74-.588h2.22z"/>
        </g>
        <g fill="#178667" mask="url(#b)">
            <path d="M125.583 201L104 251h42z"/>
        </g>
        <g mask="url(#b)">
            <path fill="#414A5F" d="M133.826 232.988c4.674 0 8.478 3.801 8.478 8.475 0 4.675-3.804 8.478-8.478 8.478-4.674 0-8.477-3.803-8.477-8.478 0-4.674 3.803-8.475 8.477-8.475zm46.824 0c4.674 0 8.479 3.801 8.479 8.475 0 4.675-3.805 8.478-8.479 8.478-4.675 0-8.477-3.803-8.477-8.478 0-4.674 3.802-8.475 8.477-8.475z"/>
            <path fill="#FFF" d="M133.826 237.291a4.177 4.177 0 0 1 4.173 4.173c0 2.3-1.871 4.173-4.173 4.173a4.177 4.177 0 0 1-4.171-4.173c0-2.3 1.87-4.173 4.17-4.173zm46.824 0c2.3 0 4.174 1.873 4.174 4.173s-1.873 4.173-4.174 4.173a4.178 4.178 0 0 1-4.172-4.173c0-2.3 1.873-4.173 4.172-4.173z"/>
            <path fill="#D73645" d="M150.946 213.488c11.264 0 18.253 5.404 22.521 9.244a9.057 9.057 0 0 0 4.99 2.26l10.138 1.203c2.347.278 4.535 1.365 6.275 3.296 1.03 1.144 1.759 3.564 2.166 4.996a2.69 2.69 0 0 1 2.69 2.69v2.06a2.69 2.69 0 0 1-2.69 2.691h-3.924a1.34 1.34 0 0 1-1.34-1.235c-.48-5.91-6.052-10.397-11.122-10.397-5.065 0-10.642 4.483-11.12 10.397a1.344 1.344 0 0 1-1.34 1.235H146.29a1.343 1.343 0 0 1-1.342-1.235c-.479-5.91-6.051-10.397-11.121-10.397-5.066 0-10.642 4.483-11.12 10.397a1.344 1.344 0 0 1-1.341 1.235h-4.674a2.69 2.69 0 0 1-2.691-2.69v-2.06a2.69 2.69 0 0 1 2.691-2.691l1.71-8.041a2.69 2.69 0 0 1 2.632-2.13h4.762a6.508 6.508 0 0 0 3.961-1.345c5.663-4.34 11.04-9.483 21.19-9.483zm-2.186 4.423a21.823 21.823 0 0 0-11.01 4.359l-3.779 2.895h14.789zm4.306-.011v7.265h16.548c-2.387-2.147-7.604-7.265-16.548-7.265z"/>
        </g>
        <g mask="url(#b)">
            <path fill="#F8B954" d="M2 119h47a2 2 0 0 1 2 2v129H0V121a2 2 0 0 1 2-2z"/>
            <path fill="#A66907" d="M15.98 230.435c.564 0 1.02.573 1.02 1.282v8.495c0 .707-.456 1.282-1.02 1.282h-3.06c-.564 0-1.02-.575-1.02-1.282v-8.495c0-.709.456-1.282 1.02-1.282h3.06zm11.05 0c.564 0 1.02.573 1.02 1.282v8.495c0 .707-.456 1.282-1.02 1.282h-3.06c-.564 0-1.02-.575-1.02-1.282v-8.495c0-.709.456-1.282 1.02-1.282h3.06zm11.05 0c.564 0 1.02.573 1.02 1.282v8.495c0 .707-.456 1.282-1.02 1.282h-3.06c-.564 0-1.02-.575-1.02-1.282v-8.495c0-.709.456-1.282 1.02-1.282h3.06zm-22.1-17.013c.564 0 1.02.573 1.02 1.281v8.496c0 .706-.456 1.282-1.02 1.282h-3.06c-.564 0-1.02-.576-1.02-1.282v-8.496c0-.708.456-1.28 1.02-1.28h3.06zm11.05 0c.564 0 1.02.573 1.02 1.281v8.496c0 .706-.456 1.282-1.02 1.282h-3.06c-.564 0-1.02-.576-1.02-1.282v-8.496c0-.708.456-1.28 1.02-1.28h3.06zm11.05 0c.564 0 1.02.573 1.02 1.281v8.496c0 .706-.456 1.282-1.02 1.282h-3.06c-.564 0-1.02-.576-1.02-1.282v-8.496c0-.708.456-1.28 1.02-1.28h3.06zm-22.1-16.162c.564 0 1.02.573 1.02 1.282v8.494c0 .708-.456 1.282-1.02 1.282h-3.06c-.564 0-1.02-.574-1.02-1.282v-8.494c0-.71.456-1.282 1.02-1.282h3.06zm11.05 0c.564 0 1.02.573 1.02 1.282v8.494c0 .708-.456 1.282-1.02 1.282h-3.06c-.564 0-1.02-.574-1.02-1.282v-8.494c0-.71.456-1.282 1.02-1.282h3.06zm11.05 0c.564 0 1.02.573 1.02 1.282v8.494c0 .708-.456 1.282-1.02 1.282h-3.06c-.564 0-1.02-.574-1.02-1.282v-8.494c0-.71.456-1.282 1.02-1.282h3.06zm-22.1-16.163c.564 0 1.02.573 1.02 1.281v8.496c0 .707-.456 1.282-1.02 1.282h-3.06c-.564 0-1.02-.575-1.02-1.282v-8.496c0-.708.456-1.28 1.02-1.28h3.06zm11.05 0c.564 0 1.02.573 1.02 1.281v8.496c0 .707-.456 1.282-1.02 1.282h-3.06c-.564 0-1.02-.575-1.02-1.282v-8.496c0-.708.456-1.28 1.02-1.28h3.06zm11.05 0c.564 0 1.02.573 1.02 1.281v8.496c0 .707-.456 1.282-1.02 1.282h-3.06c-.564 0-1.02-.575-1.02-1.282v-8.496c0-.708.456-1.28 1.02-1.28h3.06zm-22.1-17.013c.564 0 1.02.573 1.02 1.282v8.495c0 .708-.456 1.282-1.02 1.282h-3.06c-.564 0-1.02-.574-1.02-1.282v-8.495c0-.709.456-1.282 1.02-1.282h3.06zm11.05 0c.564 0 1.02.573 1.02 1.282v8.495c0 .708-.456 1.282-1.02 1.282h-3.06c-.564 0-1.02-.574-1.02-1.282v-8.495c0-.709.456-1.282 1.02-1.282h3.06zm11.05 0c.564 0 1.02.573 1.02 1.282v8.495c0 .708-.456 1.282-1.02 1.282h-3.06c-.564 0-1.02-.574-1.02-1.282v-8.495c0-.709.456-1.282 1.02-1.282h3.06zm-22.1-16.162c.564 0 1.02.574 1.02 1.282v8.495c0 .706-.456 1.282-1.02 1.282h-3.06c-.564 0-1.02-.576-1.02-1.282v-8.495c0-.708.456-1.282 1.02-1.282h3.06zm11.05 0c.564 0 1.02.574 1.02 1.282v8.495c0 .706-.456 1.282-1.02 1.282h-3.06c-.564 0-1.02-.576-1.02-1.282v-8.495c0-.708.456-1.282 1.02-1.282h3.06zm11.05 0c.564 0 1.02.574 1.02 1.282v8.495c0 .706-.456 1.282-1.02 1.282h-3.06c-.564 0-1.02-.576-1.02-1.282v-8.495c0-.708.456-1.282 1.02-1.282h3.06zm-22.1-16.162c.564 0 1.02.573 1.02 1.282v8.494c0 .708-.456 1.282-1.02 1.282h-3.06c-.564 0-1.02-.574-1.02-1.282v-8.494c0-.71.456-1.282 1.02-1.282h3.06zm11.05 0c.564 0 1.02.573 1.02 1.282v8.494c0 .708-.456 1.282-1.02 1.282h-3.06c-.564 0-1.02-.574-1.02-1.282v-8.494c0-.71.456-1.282 1.02-1.282h3.06zm11.05 0c.564 0 1.02.573 1.02 1.282v8.494c0 .708-.456 1.282-1.02 1.282h-3.06c-.564 0-1.02-.574-1.02-1.282v-8.494c0-.71.456-1.282 1.02-1.282h3.06z"/>
        </g>
        <g mask="url(#b)" opacity=".757">
            <g opacity=".7" transform="matrix(-1 0 0 1 170 73)">
                <mask id="f" fill="#fff">
                    <use xlink:href="#e"/>
                </mask>
                <path fill="#FFF" d="M38.662 6c8.218 0 15.207 3.495 17.777 8.368a15.74 15.74 0 0 1 1.053-.035c6.356 0 11.508 3.731 11.508 8.334C69 27.269 63.848 31 57.492 31c-3.08 0-5.876-.876-7.941-2.302C46.477 30.148 42.719 31 38.66 31c-3.072 0-5.972-.488-8.534-1.354C27.168 30.502 23.631 31 19.831 31 9.43 31 1 27.269 1 22.667c0-4.603 8.43-8.334 18.83-8.334.358 0 .713.005 1.066.013C23.475 9.485 30.456 6 38.662 6z" mask="url(#f)"/>
            </g>
            <g opacity=".5" transform="matrix(-1 0 0 1 170 73)">
                <mask id="h" fill="#fff">
                    <use xlink:href="#g"/>
                </mask>
                <path fill="#FFF" d="M38.662 6c8.218 0 15.207 3.495 17.777 8.368a15.74 15.74 0 0 1 1.053-.035c6.356 0 11.508 3.731 11.508 8.334C69 27.269 63.848 31 57.492 31c-3.08 0-5.876-.876-7.941-2.302C46.477 30.148 42.719 31 38.66 31c-3.072 0-5.972-.488-8.534-1.354C27.168 30.502 23.631 31 19.831 31 9.43 31 1 27.269 1 22.667c0-4.603 8.43-8.334 18.83-8.334.358 0 .713.005 1.066.013C23.475 9.485 30.456 6 38.662 6z" mask="url(#h)"/>
            </g>
        </g>
    </g>
</svg>
