<svg xmlns="http://www.w3.org/2000/svg" xmlns:xlink="http://www.w3.org/1999/xlink" width="269" height="250" viewBox="0 0 269 250">
    <defs>
        <path id="a" d="M0 0h269v250H0z"/>
        <path id="c" d="M0 0h70v25H0z"/>
    </defs>
    <g fill="none" fill-rule="evenodd">
        <mask id="b" fill="#fff">
            <use xlink:href="#a"/>
        </mask>
        <g mask="url(#b)">
            <g transform="translate(5 85)">
                <rect width="271" height="49" x="38" y="142" fill="#178667" rx="24.5"/>
                <ellipse cx="75" cy="166.5" fill="#178667" rx="75" ry="24.5"/>
                <path fill="#CD94FF" d="M239 142.885h24.767V56.897H239z"/>
                <path fill="#8C4C9E" d="M251.383 35v.457L239 56.897h24.767L251.384 35zM256.46 66.932c0 2.771-2.273 5.017-5.076 5.017-2.804 0-5.077-2.246-5.077-5.017 0-2.77 2.273-5.018 5.077-5.018 2.803 0 5.076 2.247 5.076 5.018"/>
                <g>
                    <path fill="#8C4C9E" d="M204 0h33a2 2 0 0 1 2 2v141h-37V2a2 2 0 0 1 2-2z"/>
                    <path fill="#CD94FF" d="M213.307 106.524c.427 0 .773.42.773.942v6.243c0 .52-.346.942-.773.942h-2.32c-.427 0-.773-.422-.773-.942v-6.243c0-.521.346-.942.773-.942h2.32zm8.41 0c.427 0 .773.42.773.942v6.243c0 .52-.346.942-.773.942h-2.32c-.428 0-.774-.422-.774-.942v-6.243c0-.521.346-.942.773-.942h2.32zm8.41 0c.426 0 .772.42.772.942v6.243c0 .52-.346.942-.773.942h-2.32c-.427 0-.773-.422-.773-.942v-6.243c0-.521.346-.942.773-.942h2.32zm-16.82-11.692c.427 0 .773.421.773.942v6.243c0 .52-.346.942-.773.942h-2.32c-.427 0-.773-.422-.773-.942v-6.243c0-.52.346-.942.773-.942h2.32zm8.41 0c.427 0 .773.421.773.942v6.243c0 .52-.346.942-.773.942h-2.32c-.428 0-.774-.422-.774-.942v-6.243c0-.52.346-.942.773-.942h2.32zm8.41 0c.426 0 .772.421.772.942v6.243c0 .52-.346.942-.773.942h-2.32c-.427 0-.773-.422-.773-.942v-6.243c0-.52.346-.942.773-.942h2.32zm-16.82-11.692c.427 0 .773.421.773.942v6.243c0 .52-.346.942-.773.942h-2.32c-.427 0-.773-.422-.773-.942v-6.243c0-.52.346-.942.773-.942h2.32zm8.41 0c.427 0 .773.421.773.942v6.243c0 .52-.346.942-.773.942h-2.32c-.428 0-.774-.422-.774-.942v-6.243c0-.52.346-.942.773-.942h2.32zm8.41 0c.426 0 .772.421.772.942v6.243c0 .52-.346.942-.773.942h-2.32c-.427 0-.773-.422-.773-.942v-6.243c0-.52.346-.942.773-.942h2.32zm-16.82-12.437c.427 0 .773.42.773.94v6.244c0 .52-.346.942-.773.942h-2.32c-.427 0-.773-.422-.773-.942v-6.243c0-.52.346-.941.773-.941h2.32zm8.41 0c.427 0 .773.42.773.94v6.244c0 .52-.346.942-.773.942h-2.32c-.428 0-.774-.422-.774-.942v-6.243c0-.52.346-.941.773-.941h2.32zm8.41 0c.426 0 .772.42.772.94v6.244c0 .52-.346.942-.773.942h-2.32c-.427 0-.773-.422-.773-.942v-6.243c0-.52.346-.941.773-.941h2.32zm-16.82-12.439c.427 0 .773.421.773.942v6.243c0 .52-.346.942-.773.942h-2.32c-.427 0-.773-.422-.773-.942v-6.243c0-.52.346-.942.773-.942h2.32zm8.41 0c.427 0 .773.421.773.942v6.243c0 .52-.346.942-.773.942h-2.32c-.428 0-.774-.422-.774-.942v-6.243c0-.52.346-.942.773-.942h2.32zm8.41 0c.426 0 .772.421.772.942v6.243c0 .52-.346.942-.773.942h-2.32c-.427 0-.773-.422-.773-.942v-6.243c0-.52.346-.942.773-.942h2.32zm-16.82-12.437c.427 0 .773.42.773.94v6.244c0 .52-.346.942-.773.942h-2.32c-.427 0-.773-.422-.773-.942v-6.243c0-.52.346-.941.773-.941h2.32zm8.41 0c.427 0 .773.42.773.94v6.244c0 .52-.346.942-.773.942h-2.32c-.428 0-.774-.422-.774-.942v-6.243c0-.52.346-.941.773-.941h2.32zm8.41 0c.426 0 .772.42.772.94v6.244c0 .52-.346.942-.773.942h-2.32c-.427 0-.773-.422-.773-.942v-6.243c0-.52.346-.941.773-.941h2.32zm-16.82-12.439c.427 0 .773.421.773.942v6.243c0 .52-.346.942-.773.942h-2.32c-.427 0-.773-.422-.773-.942V34.33c0-.52.346-.942.773-.942h2.32zm8.41 0c.427 0 .773.421.773.942v6.243c0 .52-.346.942-.773.942h-2.32c-.428 0-.774-.422-.774-.942V34.33c0-.52.346-.942.773-.942h2.32zm8.41 0c.426 0 .772.421.772.942v6.243c0 .52-.346.942-.773.942h-2.32c-.427 0-.773-.422-.773-.942V34.33c0-.52.346-.942.773-.942h2.32zm-16.82-12.438c.427 0 .773.422.773.942v6.243c0 .52-.346.942-.773.942h-2.32c-.427 0-.773-.422-.773-.942v-6.243c0-.52.346-.942.773-.942h2.32zm8.41 0c.427 0 .773.422.773.942v6.243c0 .52-.346.942-.773.942h-2.32c-.428 0-.774-.422-.774-.942v-6.243c0-.52.346-.942.773-.942h2.32zm8.41 0c.426 0 .772.422.772.942v6.243c0 .52-.346.942-.773.942h-2.32c-.427 0-.773-.422-.773-.942v-6.243c0-.52.346-.942.773-.942h2.32zm-16.82-12.438c.427 0 .773.421.773.942v6.243c0 .52-.346.942-.773.942h-2.32c-.427 0-.773-.422-.773-.942V9.454c0-.52.346-.942.773-.942h2.32zm8.41 0c.427 0 .773.421.773.942v6.243c0 .52-.346.942-.773.942h-2.32c-.428 0-.774-.422-.774-.942V9.454c0-.52.346-.942.773-.942h2.32zm8.41 0c.426 0 .772.421.772.942v6.243c0 .52-.346.942-.773.942h-2.32c-.427 0-.773-.422-.773-.942V9.454c0-.52.346-.942.773-.942h2.32z"/>
                </g>
                <g>
                    <path fill="#213B73" d="M113.89 125.081c-4.85 0-8.797 4.019-8.797 8.959 0 4.94 3.947 8.96 8.797 8.96 4.85 0 8.796-4.02 8.796-8.96 0-4.94-3.946-8.959-8.796-8.959zm-48.64 0c-4.852 0-8.797 4.019-8.797 8.959 0 4.94 3.945 8.96 8.798 8.96 4.85 0 8.796-4.02 8.796-8.96 0-4.94-3.946-8.959-8.796-8.959z"/>
                    <path fill="#FFF" d="M113.89 129.824c-2.282 0-4.14 1.892-4.14 4.217 0 2.324 1.858 4.216 4.14 4.216 2.283 0 4.14-1.892 4.14-4.216 0-2.325-1.857-4.217-4.14-4.217zm-48.639 0c-2.284 0-4.14 1.892-4.14 4.217 0 2.324 1.856 4.216 4.14 4.216 2.282 0 4.139-1.892 4.139-4.216 0-2.325-1.857-4.217-4.139-4.217z"/>
                    <path fill="#005DAA" d="M120.839 108.196c-3.77-3.736-18.344-4.662-27.426-3.837-18.632 1.69-25.463 11.21-33.198 12.572-5.197.916-12.054 2.732-14.254 9.7a2.795 2.795 0 0 0-2.785 2.806v2.148a2.794 2.794 0 0 0 2.785 2.805h7.91c0-6.42 5.185-11.644 11.56-11.644 6.372 0 11.556 5.224 11.556 11.644h25.343c0-6.42 5.184-11.644 11.557-11.644s11.558 5.224 11.558 11.644h3.77a2.795 2.795 0 0 0 2.785-2.805v-2.148a2.796 2.796 0 0 0-2.785-2.806s-3.33-13.43-8.376-18.435zm-19.886.02c9.959.058 15.976 1.95 16.991 2.97 1.29 1.351 2.573 3.785 3.707 6.517h-20.698zm-5.174 0v9.487H69.907c5.798-3.639 12.044-8.187 23.577-9.316a61.187 61.187 0 0 1 2.295-.17z"/>
                </g>
            </g>
        </g>
        <g fill="#213B73" mask="url(#b)">
            <path d="M141.957 34.015c-.974.087-1.719.204-2.583.412a15.21 15.21 0 0 0-5.04 2.293c-.193.132-.344.249-.333.254.005.005.124-.03.265-.082a18.533 18.533 0 0 1 1.687-.513 16.055 16.055 0 0 1 4.135-.518c.958 0 1.489.035 2.353.157 5.655.788 10.477 4.428 12.742 9.623.229.519.65 1.723.75 2.14A.994.994 0 0 0 156 48c.005-.005.063-.193.125-.407a16.558 16.558 0 0 1 2.197-4.666c2-2.913 4.989-5.14 8.379-6.243 1.75-.57 3.322-.818 5.19-.818 1.948 0 3.646.284 5.578.945.286.097.526.173.531.168.015-.02-.776-.539-1.255-.819-1.718-1.011-3.593-1.698-5.431-1.987a16.9 16.9 0 0 0-3.395-.143c-3.338.25-6.363 1.53-8.873 3.752-1.083.96-2.207 2.344-2.874 3.538a1.936 1.936 0 0 1-.167.265c-.01.005-.125-.153-.25-.361a15.119 15.119 0 0 0-4.55-4.758c-1.974-1.302-4.124-2.08-6.556-2.385-.39-.045-2.333-.091-2.703-.055l.01-.01z"/>
        </g>
        <g mask="url(#b)" opacity=".5">
            <g transform="translate(72 76)">
                <mask id="d" fill="#fff">
                    <use xlink:href="#c"/>
                </mask>
                <path fill="#FFF" d="M1.67 34.156S.219 24.47 11.446 24.98c0 0 1.32-10.322 13.606-8.283 0 0 1.848-16.565 20.077-15.036 0 0 12.416.765 13.87 17.458 0 0 19.549-5.607 18.889 15.036H1.67z" mask="url(#d)" transform="matrix(-1 0 0 1 79.512 0)"/>
            </g>
        </g>
        <g fill="#FFF" mask="url(#b)" opacity=".5">
            <path d="M192.073 65s-1.733-11.885 11.659-11.26c0 0 1.575-12.667 16.228-10.164 0 0 2.205-20.33 23.947-18.454 0 0 14.81.939 16.544 21.425 0 0 23.317-6.881 22.53 18.453h-90.908z"/>
        </g>
        <g fill="#213B73" mask="url(#b)">
            <path d="M108.34 55.009a8.66 8.66 0 0 0-1.409.235c-.965.247-1.914.7-2.749 1.31a1.195 1.195 0 0 0-.182.145.83.83 0 0 0 .145-.046 9.77 9.77 0 0 1 .92-.294 8.381 8.381 0 0 1 2.255-.296c.523 0 .813.02 1.284.09 3.085.45 5.715 2.53 6.95 5.5.125.295.355.984.41 1.222A.587.587 0 0 0 116 63c.003-.003.034-.11.068-.232a9.67 9.67 0 0 1 1.199-2.667 8.98 8.98 0 0 1 4.57-3.567 8.341 8.341 0 0 1 2.831-.468c1.063 0 1.988.163 3.042.54.156.056.287.1.29.096.008-.011-.423-.308-.685-.467-.937-.579-1.96-.97-2.962-1.136a8.803 8.803 0 0 0-1.852-.082c-1.82.143-3.47.875-4.84 2.144a8.393 8.393 0 0 0-1.567 2.022 1.114 1.114 0 0 1-.091.151 1.12 1.12 0 0 1-.136-.206 8.48 8.48 0 0 0-2.483-2.72 7.975 7.975 0 0 0-3.576-1.361c-.213-.027-1.272-.053-1.474-.032l.006-.006z"/>
        </g>
        <g mask="url(#b)">
            <path fill="#E5E5E5" d="M147 153h60v75h-60z"/>
            <path fill="#FD8585" d="M147 153h60v3.947h-60z"/>
            <path fill="#D73645" d="M158.842 199.579h36.316V228h-36.316z"/>
            <path fill="#FFA6A6" d="M190.421 187.737l6.316 13.42h-.266a2.763 2.763 0 0 1-4.472 3.117c-.5.513-1.2.831-1.973.831a2.755 2.755 0 0 1-1.974-.83c-.5.512-1.2.83-1.973.83a2.75 2.75 0 0 1-1.58-.495 2.749 2.749 0 0 1-1.578.495 2.755 2.755 0 0 1-1.974-.83c-.5.512-1.2.83-1.973.83a2.755 2.755 0 0 1-1.975-.83c-.5.512-1.2.83-1.973.83a2.755 2.755 0 0 1-1.974-.83c-.5.512-1.2.83-1.973.83a2.75 2.75 0 0 1-1.58-.495 2.749 2.749 0 0 1-1.578.495 2.755 2.755 0 0 1-1.974-.83c-.5.512-1.2.83-1.973.83a2.755 2.755 0 0 1-1.975-.83 2.763 2.763 0 0 1-4.47-3.117h-.266l7.105-13.421h26.053z"/>
        </g>
        <g mask="url(#b)">
            <path fill="#F8B954" d="M144.607 144.759c0 1.982-5.144 0-5.144 0 3.43 23.783.571 51.53-8.574 83.241h18.862c5.804-43.603 4.09-71.35-5.144-83.241z"/>
            <path fill="#178667" d="M112.094 129.166s4.418 6.807 11.752 10.318c-7.334 3.508-11.752 10.315-11.752 10.315s9.17 4.22 18.323 1.436c4.796-1.459 8.901-3.569 11.584-5.762 2.68 2.193 6.786 4.303 11.582 5.762 9.153 2.784 18.323-1.436 18.323-1.436s-4.418-6.806-11.751-10.316c7.351-3.508 11.834-10.317 11.751-10.317-.093 0-9.17-4.219-18.323-1.435-4.796 1.458-8.901 3.568-11.583 5.76-2.682-2.192-6.787-4.302-11.583-5.76-9.153-2.784-18.323 1.435-18.323 1.435z"/>
        </g>
    </g>
</svg>
